<svg width="24" height="24" viewBox="0 0 24 24" fill="none" xmlns="http://www.w3.org/2000/svg">
<path d="M23.76 12.2666C23.76 11.2799 23.6799 10.5599 23.5067 9.81329H12.24V14.2666H18.8533C18.72 15.3733 18 17.0399 16.4 18.1599L16.3775 18.309L19.9398 21.0687L20.1866 21.0933C22.4533 18.9999 23.76 15.9199 23.76 12.2666Z" fill="#4285F4"/>
<path d="M12.24 24C15.48 24 18.2 22.9333 20.1867 21.0933L16.4 18.1599C15.3867 18.8666 14.0267 19.3599 12.24 19.3599C9.06673 19.3599 6.37342 17.2667 5.41333 14.3734L5.2726 14.3853L1.56846 17.252L1.52002 17.3866C3.49333 21.3066 7.54667 24 12.24 24Z" fill="#34A853"/>
<path d="M5.41327 14.3734C5.15994 13.6267 5.01333 12.8266 5.01333 12C5.01333 11.1733 5.15994 10.3733 5.39994 9.62667L5.39323 9.46765L1.64267 6.55493L1.51996 6.6133C0.706662 8.23999 0.23999 10.0667 0.23999 12C0.23999 13.9333 0.706662 15.76 1.51996 17.3866L5.41327 14.3734Z" fill="#FBBC05"/>
<path d="M12.24 4.63997C14.4933 4.63997 16.0133 5.6133 16.88 6.42668L20.2667 3.12C18.1867 1.18667 15.48 0 12.24 0C7.54667 0 3.49333 2.69331 1.52002 6.61328L5.4 9.62665C6.37342 6.73333 9.06673 4.63997 12.24 4.63997Z" fill="#EB4335"/>
</svg>
