<svg width="198" height="52" viewBox="0 0 198 52" fill="none" xmlns="http://www.w3.org/2000/svg">
<path d="M46.1665 27.7117C45.8257 31.3998 44.4416 34.9145 42.1761 37.8447C39.9106 40.7749 36.8574 42.9992 33.3739 44.2575C29.8904 45.5158 26.1205 45.7559 22.5055 44.9499C18.8904 44.1438 15.5797 42.3248 12.9607 39.7058C10.3417 37.0868 8.52274 33.7761 7.71667 30.1611C6.9106 26.546 7.15075 22.7762 8.40903 19.2926C9.66731 15.8091 11.8917 12.756 14.8218 10.4905C17.752 8.22497 21.2668 6.84083 24.9549 6.5C22.7956 9.42125 21.7565 13.0205 22.0267 16.6431C22.2968 20.2657 23.8582 23.671 26.4269 26.2396C28.9956 28.8083 32.4009 30.3697 36.0235 30.6398C39.6461 30.91 43.2453 29.8709 46.1665 27.7117Z" stroke="#2462ED" stroke-width="5.77778" stroke-linecap="round" stroke-linejoin="round"/>
<path d="M63.5415 35V18.36H66.3264V32.3884H73.6757V35H63.5415ZM80.3133 35.3582C79.3889 35.3582 78.6262 35.2041 78.0253 34.896C77.4244 34.5879 76.9468 34.195 76.5924 33.7173C76.2381 33.2397 75.9761 32.7313 75.8067 32.192C75.6372 31.6527 75.5255 31.1443 75.4715 30.6667C75.4253 30.1813 75.4022 29.7884 75.4022 29.488V22.52H78.2218V28.5289C78.2218 28.9141 78.2487 29.3493 78.3027 29.8347C78.3566 30.3123 78.4798 30.7745 78.6724 31.2213C78.8727 31.6604 79.1655 32.0225 79.5507 32.3076C79.9435 32.5926 80.4712 32.7351 81.1338 32.7351C81.4881 32.7351 81.8387 32.6773 82.1853 32.5618C82.532 32.4462 82.844 32.2498 83.1213 31.9724C83.4064 31.6874 83.6336 31.2984 83.8031 30.8053C83.9726 30.3123 84.0573 29.6883 84.0573 28.9333L85.7098 29.6382C85.7098 30.7013 85.5018 31.6643 85.0858 32.5271C84.6775 33.3899 84.0727 34.0794 83.2715 34.5956C82.4704 35.104 81.4843 35.3582 80.3133 35.3582ZM84.3924 35V31.1289H84.0573V22.52H86.8538V35H84.3924ZM98.7323 35V28.9911C98.7323 28.5982 98.7054 28.163 98.6514 27.6853C98.5975 27.2077 98.4704 26.7493 98.2701 26.3102C98.0775 25.8634 97.7848 25.4975 97.3919 25.2124C97.0067 24.9274 96.4829 24.7849 95.8203 24.7849C95.466 24.7849 95.1154 24.8427 94.7688 24.9582C94.4221 25.0738 94.1063 25.2741 93.8212 25.5591C93.5439 25.8364 93.3205 26.2216 93.151 26.7147C92.9815 27.2 92.8968 27.824 92.8968 28.5867L91.2443 27.8818C91.2443 26.8187 91.4485 25.8557 91.8568 24.9929C92.2728 24.1301 92.8814 23.4444 93.6826 22.936C94.4837 22.4199 95.4698 22.1618 96.6408 22.1618C97.5652 22.1618 98.3279 22.3159 98.9288 22.624C99.5297 22.9321 100.007 23.325 100.362 23.8027C100.716 24.2803 100.978 24.7887 101.147 25.328C101.317 25.8673 101.425 26.3796 101.471 26.8649C101.525 27.3425 101.552 27.7316 101.552 28.032V35H98.7323ZM90.0772 35V22.52H92.5617V26.3911H92.8968V35H90.0772ZM108.057 35.3467C107.156 35.3467 106.393 35.1772 105.769 34.8382C105.145 34.4916 104.671 34.0332 104.348 33.4631C104.032 32.893 103.874 32.2652 103.874 31.5796C103.874 30.9787 103.974 30.4394 104.174 29.9618C104.375 29.4764 104.683 29.0604 105.099 28.7138C105.515 28.3594 106.054 28.0705 106.717 27.8471C107.217 27.6853 107.803 27.539 108.473 27.408C109.151 27.277 109.883 27.1576 110.669 27.0498C111.462 26.9342 112.29 26.811 113.153 26.68L112.159 27.2462C112.167 26.3834 111.974 25.7479 111.582 25.3396C111.189 24.9313 110.526 24.7271 109.594 24.7271C109.032 24.7271 108.489 24.8581 107.965 25.12C107.441 25.3819 107.075 25.8326 106.867 26.472L104.325 25.6747C104.633 24.6193 105.218 23.7719 106.081 23.1324C106.952 22.493 108.123 22.1733 109.594 22.1733C110.703 22.1733 111.678 22.3544 112.518 22.7164C113.365 23.0785 113.993 23.6717 114.401 24.496C114.625 24.9351 114.759 25.3858 114.806 25.848C114.852 26.3025 114.875 26.7994 114.875 27.3387V35H112.437V32.296L112.841 32.7351C112.279 33.6364 111.62 34.299 110.865 34.7227C110.118 35.1387 109.182 35.3467 108.057 35.3467ZM108.612 33.128C109.243 33.128 109.783 33.0163 110.23 32.7929C110.676 32.5695 111.031 32.296 111.293 31.9724C111.562 31.6489 111.743 31.3446 111.836 31.0596C111.982 30.7052 112.063 30.3007 112.078 29.8462C112.102 29.384 112.113 29.0104 112.113 28.7253L112.968 28.9796C112.129 29.1105 111.408 29.2261 110.807 29.3262C110.206 29.4264 109.69 29.5227 109.259 29.6151C108.827 29.6999 108.446 29.7961 108.115 29.904C107.791 30.0196 107.518 30.1544 107.294 30.3084C107.071 30.4625 106.898 30.6397 106.774 30.84C106.659 31.0403 106.601 31.2753 106.601 31.5449C106.601 31.853 106.678 32.1265 106.832 32.3653C106.986 32.5964 107.21 32.7813 107.502 32.92C107.803 33.0587 108.173 33.128 108.612 33.128Z" fill="black"/>
<path d="M124.042 35.3467C122.825 35.3467 121.727 35.1348 120.749 34.7111C119.778 34.2874 118.977 33.6827 118.346 32.8969C117.722 32.1034 117.325 31.1636 117.155 30.0773L120.044 29.6382C120.291 30.6243 120.795 31.387 121.558 31.9262C122.328 32.4655 123.214 32.7351 124.216 32.7351C124.809 32.7351 125.367 32.6427 125.891 32.4578C126.415 32.2729 126.839 32.0033 127.162 31.6489C127.494 31.2945 127.659 30.8593 127.659 30.3431C127.659 30.112 127.621 29.9001 127.544 29.7076C127.467 29.5073 127.351 29.3301 127.197 29.176C127.051 29.0219 126.858 28.8833 126.619 28.76C126.388 28.629 126.119 28.5173 125.81 28.4249L121.512 27.1538C121.142 27.0459 120.741 26.9034 120.31 26.7262C119.886 26.5413 119.482 26.291 119.097 25.9751C118.719 25.6516 118.407 25.2433 118.161 24.7502C117.922 24.2495 117.802 23.6332 117.802 22.9013C117.802 21.8305 118.072 20.933 118.611 20.2089C119.158 19.477 119.89 18.9301 120.807 18.568C121.731 18.2059 122.756 18.0287 123.881 18.0364C125.021 18.0441 126.038 18.2406 126.931 18.6258C127.825 19.0033 128.572 19.5541 129.173 20.2782C129.774 21.0024 130.198 21.8767 130.444 22.9013L127.451 23.4213C127.328 22.8359 127.089 22.339 126.735 21.9307C126.388 21.5147 125.961 21.1988 125.452 20.9831C124.951 20.7674 124.416 20.6519 123.846 20.6364C123.291 20.6287 122.775 20.7135 122.298 20.8907C121.828 21.0601 121.446 21.3067 121.154 21.6302C120.869 21.9538 120.726 22.3313 120.726 22.7627C120.726 23.171 120.849 23.5061 121.096 23.768C121.342 24.0222 121.647 24.2264 122.009 24.3804C122.378 24.5268 122.752 24.6501 123.13 24.7502L126.111 25.5822C126.519 25.6901 126.978 25.8364 127.486 26.0213C127.994 26.2062 128.484 26.4643 128.954 26.7956C129.423 27.1268 129.809 27.5621 130.109 28.1013C130.417 28.6406 130.571 29.3262 130.571 30.1582C130.571 31.021 130.39 31.7799 130.028 32.4347C129.674 33.0818 129.192 33.621 128.584 34.0524C127.975 34.4839 127.278 34.8074 126.492 35.0231C125.714 35.2388 124.898 35.3467 124.042 35.3467ZM139.07 35.3467C137.853 35.3467 136.832 35.0578 136.008 34.48C135.183 33.9022 134.563 33.1164 134.147 32.1227C133.731 31.1212 133.523 30.0003 133.523 28.76C133.523 27.5043 133.731 26.3796 134.147 25.3858C134.563 24.392 135.172 23.6101 135.973 23.04C136.782 22.4622 137.78 22.1733 138.966 22.1733C140.145 22.1733 141.165 22.4622 142.028 23.04C142.899 23.6101 143.573 24.392 144.05 25.3858C144.528 26.3719 144.767 27.4966 144.767 28.76C144.767 30.008 144.532 31.1289 144.062 32.1227C143.592 33.1164 142.929 33.9022 142.074 34.48C141.219 35.0578 140.218 35.3467 139.07 35.3467ZM133.049 40.5467V22.52H135.511V31.2791H135.857V40.5467H133.049ZM138.642 32.8507C139.366 32.8507 139.964 32.6696 140.433 32.3076C140.903 31.9455 141.25 31.4563 141.473 30.84C141.705 30.216 141.82 29.5227 141.82 28.76C141.82 28.005 141.705 27.3194 141.473 26.7031C141.242 26.0791 140.884 25.5861 140.399 25.224C139.913 24.8542 139.297 24.6693 138.55 24.6693C137.841 24.6693 137.263 24.8427 136.817 25.1893C136.37 25.5283 136.038 26.0059 135.823 26.6222C135.615 27.2308 135.511 27.9434 135.511 28.76C135.511 29.5689 135.615 30.2815 135.823 30.8978C136.038 31.5141 136.374 31.9956 136.828 32.3422C137.29 32.6812 137.895 32.8507 138.642 32.8507ZM155.946 35V28.9911C155.946 28.5982 155.919 28.163 155.865 27.6853C155.811 27.2077 155.684 26.7493 155.484 26.3102C155.291 25.8634 154.998 25.4975 154.605 25.2124C154.22 24.9274 153.696 24.7849 153.034 24.7849C152.68 24.7849 152.329 24.8427 151.982 24.9582C151.636 25.0738 151.32 25.2741 151.035 25.5591C150.757 25.8364 150.534 26.2216 150.365 26.7147C150.195 27.2 150.11 27.824 150.11 28.5867L148.458 27.8818C148.458 26.8187 148.662 25.8557 149.07 24.9929C149.486 24.1301 150.095 23.4444 150.896 22.936C151.697 22.4199 152.683 22.1618 153.854 22.1618C154.779 22.1618 155.541 22.3159 156.142 22.624C156.743 22.9321 157.221 23.325 157.575 23.8027C157.93 24.2803 158.192 24.7887 158.361 25.328C158.53 25.8673 158.638 26.3796 158.685 26.8649C158.738 27.3425 158.765 27.7316 158.765 28.032V35H155.946ZM147.291 35V18.36H149.775V27.1191H150.11V35H147.291ZM167.455 35.3467C166.191 35.3467 165.082 35.0732 164.127 34.5262C163.171 33.9793 162.424 33.2204 161.885 32.2498C161.353 31.2791 161.088 30.1621 161.088 28.8987C161.088 27.5351 161.349 26.3526 161.873 25.3511C162.397 24.3419 163.125 23.56 164.057 23.0053C164.989 22.4507 166.068 22.1733 167.293 22.1733C168.587 22.1733 169.685 22.4776 170.586 23.0862C171.495 23.6871 172.169 24.5384 172.608 25.64C173.048 26.7416 173.213 28.0397 173.105 29.5342H170.344V28.5173C170.336 27.1615 170.097 26.1716 169.627 25.5476C169.157 24.9236 168.418 24.6116 167.408 24.6116C166.268 24.6116 165.421 24.9659 164.866 25.6747C164.312 26.3757 164.034 27.4041 164.034 28.76C164.034 30.0234 164.312 31.0018 164.866 31.6951C165.421 32.3884 166.23 32.7351 167.293 32.7351C167.979 32.7351 168.568 32.5849 169.061 32.2844C169.562 31.9763 169.947 31.5333 170.216 30.9556L172.967 31.7876C172.489 32.9123 171.749 33.7867 170.748 34.4107C169.754 35.0347 168.656 35.3467 167.455 35.3467ZM163.156 29.5342V27.4311H171.742V29.5342H163.156ZM175.684 35V22.52H178.145V25.5591L177.845 25.1662C177.999 24.7502 178.203 24.3727 178.457 24.0338C178.719 23.6871 179.031 23.4021 179.393 23.1787C179.701 22.9707 180.04 22.8089 180.41 22.6933C180.787 22.5701 181.173 22.4969 181.565 22.4738C181.958 22.443 182.34 22.4584 182.709 22.52V25.12C182.34 25.0121 181.912 24.9775 181.427 25.016C180.949 25.0545 180.518 25.1893 180.133 25.4204C179.747 25.6284 179.432 25.8942 179.185 26.2178C178.946 26.5413 178.769 26.9111 178.653 27.3271C178.538 27.7354 178.48 28.1784 178.48 28.656V35H175.684ZM190.363 35.3467C189.099 35.3467 187.99 35.0732 187.035 34.5262C186.079 33.9793 185.332 33.2204 184.793 32.2498C184.261 31.2791 183.996 30.1621 183.996 28.8987C183.996 27.5351 184.257 26.3526 184.781 25.3511C185.305 24.3419 186.033 23.56 186.965 23.0053C187.897 22.4507 188.976 22.1733 190.201 22.1733C191.495 22.1733 192.593 22.4776 193.494 23.0862C194.403 23.6871 195.077 24.5384 195.516 25.64C195.956 26.7416 196.121 28.0397 196.013 29.5342H193.252V28.5173C193.244 27.1615 193.005 26.1716 192.535 25.5476C192.065 24.9236 191.326 24.6116 190.316 24.6116C189.176 24.6116 188.329 24.9659 187.774 25.6747C187.22 26.3757 186.942 27.4041 186.942 28.76C186.942 30.0234 187.22 31.0018 187.774 31.6951C188.329 32.3884 189.138 32.7351 190.201 32.7351C190.887 32.7351 191.476 32.5849 191.969 32.2844C192.47 31.9763 192.855 31.5333 193.124 30.9556L195.875 31.7876C195.397 32.9123 194.657 33.7867 193.656 34.4107C192.662 35.0347 191.564 35.3467 190.363 35.3467ZM186.064 29.5342V27.4311H194.65V29.5342H186.064Z" fill="#2462ED"/>
</svg>
