<svg width="404" height="28" viewBox="0 0 404 28" fill="none" xmlns="http://www.w3.org/2000/svg">
<rect y="13.5" width="172" height="1" rx="0.5" fill="#EBEBEB"/>
<path d="M199.263 19.21C198.507 19.21 197.851 19.0397 197.296 18.699C196.741 18.3583 196.311 17.8893 196.008 17.292C195.709 16.69 195.56 15.997 195.56 15.213C195.56 14.4243 195.714 13.7313 196.022 13.134C196.33 12.532 196.762 12.0653 197.317 11.734C197.872 11.398 198.521 11.23 199.263 11.23C200.019 11.23 200.675 11.4003 201.23 11.741C201.785 12.0817 202.215 12.5507 202.518 13.148C202.821 13.7453 202.973 14.4337 202.973 15.213C202.973 16.0017 202.819 16.697 202.511 17.299C202.208 17.8963 201.778 18.3653 201.223 18.706C200.668 19.042 200.014 19.21 199.263 19.21ZM199.263 17.831C199.986 17.831 200.525 17.5883 200.88 17.103C201.239 16.613 201.419 15.983 201.419 15.213C201.419 14.4243 201.237 13.7943 200.873 13.323C200.514 12.847 199.977 12.609 199.263 12.609C198.773 12.609 198.369 12.721 198.052 12.945C197.735 13.1643 197.499 13.47 197.345 13.862C197.191 14.2493 197.114 14.6997 197.114 15.213C197.114 16.0063 197.296 16.641 197.66 17.117C198.024 17.593 198.558 17.831 199.263 17.831ZM204.511 19V11.44H205.813V13.274L205.631 13.036C205.725 12.7933 205.846 12.5717 205.995 12.371C206.145 12.1657 206.317 11.9977 206.513 11.867C206.705 11.727 206.917 11.6197 207.15 11.545C207.388 11.4657 207.631 11.419 207.878 11.405C208.126 11.3863 208.364 11.398 208.592 11.44V12.812C208.345 12.7467 208.07 12.728 207.766 12.756C207.468 12.784 207.192 12.8797 206.94 13.043C206.702 13.197 206.513 13.3837 206.373 13.603C206.238 13.8223 206.14 14.0673 206.079 14.338C206.019 14.604 205.988 14.8863 205.988 15.185V19H204.511Z" fill="#A1A1A1"/>
<rect x="232" y="13.5" width="172" height="1" rx="0.5" fill="#EBEBEB"/>
</svg>
